<svg width="30" height="30" viewBox="0 0 30 30" fill="none" xmlns="http://www.w3.org/2000/svg">
<g clip-path="url(#clip0_41_25)">
<rect width="30" height="30" fill="black"/>
<path d="M25.5613 25.5618H21.1162V18.6005C21.1162 16.9406 21.0866 14.8037 18.8044 14.8037C16.4892 14.8037 16.135 16.6123 16.135 18.4797V25.5614H11.69V11.2462H15.9572V13.2025H16.0169C16.444 12.4723 17.0611 11.8716 17.8025 11.4644C18.5439 11.0572 19.3819 10.8587 20.2273 10.8901C24.7325 10.8901 25.5632 13.8535 25.5632 17.7087L25.5613 25.5618ZM6.67441 9.28953C5.24976 9.28976 4.09464 8.135 4.09441 6.71035C4.09417 5.2857 5.24882 4.13058 6.67347 4.13035C8.09812 4.13 9.25324 5.28476 9.25347 6.70941C9.2536 7.39356 8.98195 8.04973 8.49828 8.53359C8.01462 9.01746 7.35855 9.28937 6.67441 9.28953ZM8.89699 25.5619H4.44726V11.2462H8.89687V25.5618L8.89699 25.5619ZM27.7773 0.00218342H2.21367C1.00546 -0.0114103 0.0146436 0.956441 -0.00012207 2.16464V27.8349C0.0141748 29.0437 1.00488 30.0125 2.21355 29.9998H27.7773C28.9886 30.0148 29.9831 29.0461 29.9999 27.8349V2.16265C29.9827 0.952105 28.988 -0.0156291 27.7773 0.000191237" fill="white"/>
</g>
<defs>
<clipPath id="clip0_41_25">
<rect width="30" height="30" fill="white"/>
</clipPath>
</defs>
</svg>
